<?xml version="1.0" encoding="utf-8"?>
<!-- Generator: Adobe Illustrator 15.0.0, SVG Export Plug-In . SVG Version: 6.00 Build 0)  -->
<!DOCTYPE svg PUBLIC "-//W3C//DTD SVG 1.1//EN" "http://www.w3.org/Graphics/SVG/1.1/DTD/svg11.dtd">
<svg version="1.1" id="Layer_1" xmlns="http://www.w3.org/2000/svg" xmlns:xlink="http://www.w3.org/1999/xlink" x="0px" y="0px"
	 width="303.279px" height="289.701px" viewBox="0 0 303.279 289.701" enable-background="new 0 0 303.279 289.701"
	 xml:space="preserve">
<g>
	<g>
		<defs>
			<rect id="SVGID_1_" y="0.001" width="303.307" height="289.73"/>
		</defs>
		<clipPath id="SVGID_2_">
			<use xlink:href="#SVGID_1_"  overflow="visible"/>
		</clipPath>
		<path clip-path="url(#SVGID_2_)" fill="#FFFFFF" d="M235.52,10.167c-0.482-3.174-0.712-6.417-0.712-9.705V0.001h68.493v68.104
			c-0.275,0-0.553,0.022-0.827,0.022c-0.507,0-0.989,0-1.472-0.047C267.582,67.391,240.143,42.459,235.52,10.167"/>
		<path clip-path="url(#SVGID_2_)" fill="#FFFFFF" d="M301.001,68.127V68.08c0.483,0.047,0.966,0.047,1.472,0.047
			c0.275,0,0.553-0.021,0.828-0.021V87.08c-0.275,0-0.553,0.022-0.828,0.022c-0.528,0-1.08,0-1.609-0.022l-9.338-10.42
			L301.001,68.127z"/>
		<path clip-path="url(#SVGID_2_)" fill="#FFFFFF" d="M215.832,0.001h18.976v0.46c0,3.289,0.229,6.532,0.712,9.706l-9.268-7.406
			l-9.432,10.903c-0.643-4.302-0.988-8.718-0.988-13.203V0.001z"/>
		<path clip-path="url(#SVGID_2_)" fill="#FFFFFF" d="M303.301,87.08v14.674h-0.805c-56.281,0-101.913-45.517-102.097-101.753
			h15.433v0.461c0,4.484,0.346,8.9,0.989,13.202c6.278,41.077,41.377,72.632,84.042,73.416c0.529,0.022,1.081,0.022,1.609,0.022
			C302.749,87.103,303.025,87.08,303.301,87.08"/>
	</g>
	<g>
		<defs>
			<path id="SVGID_3_" d="M216.82,13.663c6.279,41.077,41.378,72.634,84.043,73.417l-9.338-10.42l9.476-8.532V68.08
				c-33.418-0.688-60.858-25.621-65.481-57.913l-9.269-7.404L216.82,13.663z"/>
		</defs>
		<clipPath id="SVGID_4_">
			<use xlink:href="#SVGID_3_"  overflow="visible"/>
		</clipPath>
		
			<linearGradient id="SVGID_5_" gradientUnits="userSpaceOnUse" x1="0.9902" y1="600.1416" x2="1.9902" y2="600.1416" gradientTransform="matrix(84.1802 0 0 -84.1802 133.4562 50564.9414)">
			<stop  offset="0" style="stop-color:#0572A1"/>
			<stop  offset="1" style="stop-color:#4FBBE8"/>
		</linearGradient>
		<rect x="216.82" y="2.763" clip-path="url(#SVGID_4_)" fill="url(#SVGID_5_)" width="84.181" height="84.317"/>
	</g>
	<g>
		<defs>
			<path id="SVGID_6_" d="M0,0c2.898,160.519,133.929,289.731,295.137,289.731c2.713,0,5.449-0.023,8.164-0.114V101.776v-0.022
				h-0.805c-56.28,0-101.913-45.518-102.098-101.754H0z"/>
		</defs>
		<clipPath id="SVGID_7_">
			<use xlink:href="#SVGID_6_"  overflow="visible"/>
		</clipPath>
		
			<linearGradient id="SVGID_8_" gradientUnits="userSpaceOnUse" x1="0.9976" y1="597.4893" x2="1.9976" y2="597.4893" gradientTransform="matrix(303.3012 0 0 -303.3012 -302.5971 181364.0469)">
			<stop  offset="0" style="stop-color:#0572A1"/>
			<stop  offset="1" style="stop-color:#4FBBE8"/>
		</linearGradient>
		<rect y="0.001" clip-path="url(#SVGID_7_)" fill="url(#SVGID_8_)" width="303.301" height="289.73"/>
	</g>
	<g>
		<defs>
			<rect id="SVGID_9_" y="0.001" width="303.307" height="289.73"/>
		</defs>
		<clipPath id="SVGID_10_">
			<use xlink:href="#SVGID_9_"  overflow="visible"/>
		</clipPath>
		<defs>
			<filter id="Adobe_OpacityMaskFilter" filterUnits="userSpaceOnUse" x="266.707" y="102.79" width="45.6" height="187.684">
				<feFlood  style="flood-color:white;flood-opacity:1" result="back"/>
				<feBlend  in="SourceGraphic" in2="back" mode="normal"/>
			</filter>
		</defs>
		<mask maskUnits="userSpaceOnUse" x="266.707" y="102.79" width="45.6" height="187.684" id="SVGID_11_">
			<g filter="url(#Adobe_OpacityMaskFilter)">
				
					<linearGradient id="SVGID_12_" gradientUnits="userSpaceOnUse" x1="-0.5659" y1="594.6543" x2="0.4343" y2="594.6543" gradientTransform="matrix(-60.6623 174.1983 174.1983 60.6623 -103441.3047 -35913.3984)">
					<stop  offset="0" style="stop-color:#CCCCCC"/>
					<stop  offset="1" style="stop-color:#000000"/>
				</linearGradient>
				<polygon clip-path="url(#SVGID_10_)" fill="url(#SVGID_12_)" points="393.289,31.337 270.504,383.931 -89.982,258.396 
					32.804,-94.198 				"/>
			</g>
		</mask>
		<g clip-path="url(#SVGID_10_)" mask="url(#SVGID_11_)">
			<g>
				<defs>
					<rect id="SVGID_13_" x="266.707" y="102.79" width="45.6" height="187.684"/>
				</defs>
				<clipPath id="SVGID_14_">
					<use xlink:href="#SVGID_13_"  overflow="visible"/>
				</clipPath>
				<path clip-path="url(#SVGID_14_)" fill="#114859" d="M303.307,103.791v185.443c0,0-21.468,0.856-27.6-0.676L303.307,103.791z"/>
			</g>
		</g>
		<path clip-path="url(#SVGID_10_)" fill="#FFFFFF" d="M162.775,47.018c0.756,0.64,0.793,1.998,1.57,2.618
			c2.051,0.304,3.04-0.451,4.189-1.048C169.877,42.97,163.096,42.77,162.775,47.018 M164.346,39.687h3.143v0.522
			c3.131,0.361,4.549,2.435,5.235,5.236c0.54,3.334-0.731,4.854-1.569,6.808c1.939,3.295,3.965,6.506,5.758,9.947
			c1.354,1.266,1.466,3.774,3.143,4.714c0.645,1.723,2.027,4.538-0.523,5.236c-2.41,0.48-2.789-2.349-3.666-3.665
			c-3.154-4.739-5.865-9.748-8.377-14.661C157.09,55.437,156.476,41.244,164.346,39.687"/>
		<path clip-path="url(#SVGID_10_)" fill="#FFFFFF" d="M124.552,49.636c3.342,0.548,4.738-0.846,4.188-4.19
			C125.983,41.975,121.08,46.879,124.552,49.636 M133.453,44.922h11.519c3.756,0,8.202-0.9,9.949,1.57
			c-0.113,4.018-5.786,2.621-9.425,2.621h-11.519c-1.834-0.09-1.649,1.84-2.619,2.616c-0.588,0.982-2.029,1.111-2.618,2.095
			c-12.799,2.818-12.608-16.408,0-13.615C130.776,41.315,131.858,43.376,133.453,44.922"/>
		<path clip-path="url(#SVGID_10_)" fill="#FFFFFF" d="M104.13,82.623c1.379,1.267,3.857,1.267,5.236,0
			C111.063,76.527,102.434,76.527,104.13,82.623 M122.456,56.966c1.076,3.792-3.568,6.133-4.188,9.949
			c-2.319,2.567-3.908,5.867-5.76,8.9c0.912,3.148,2.006,5.28,1.047,7.855c-1.874,5.031-10.728,5.868-13.614,0
			c-0.666-6.776,2.02-10.197,8.378-9.95c4.412-5.362,7.345-12.203,11.519-17.803C121.139,55.839,122.012,56.188,122.456,56.966"/>
		<path clip-path="url(#SVGID_10_)" fill="#FFFFFF" d="M147.59,60.63c0.651,3.444-2.29,3.297-5.236,3.143
			c-6.434,1.594-10.389,5.668-13.091,10.995c-0.901,2.766-0.118,7.213-2.618,8.379c-3.932-0.544-1.444-6.936-1.047-9.426
			c1.144-3.044,3.215-5.161,4.713-7.854c2.862-1.326,4.328-4.049,7.854-4.712C140.463,60.325,145.454,58.352,147.59,60.63"/>
		<path clip-path="url(#SVGID_10_)" fill="#FFFFFF" d="M148.114,68.485c-0.781,3.406-6.641,1.736-8.378,4.188
			c-1.843,0.776-2.263,2.977-3.666,4.191c-0.774,2.017,0.186,5.771-2.093,6.282c-4.219-0.277-1.847-4.948-1.571-7.854
			c1.523-2.317,3.505-4.175,5.236-6.285C140.162,68.036,145.95,64.948,148.114,68.485"/>
		<path clip-path="url(#SVGID_10_)" fill="#FFFFFF" d="M142.878,82.1c0.997,2.388,4.219,2.469,5.76,0.523
			C150.11,76.773,141.914,76.614,142.878,82.1 M143.402,74.768c4.842-1.867,9.089,1.379,9.425,5.761
			c-0.195,5.389-3.273,7.898-9.425,7.329c-2.277-1.911-4.966-3.411-4.189-8.376C139.793,77.095,141.205,75.539,143.402,74.768"/>
		<path clip-path="url(#SVGID_10_)" fill="#FFFFFF" d="M182.672,81.575c0.565,1.531,1.447,2.743,3.666,2.619
			c0.988-0.758,2.321-1.169,2.094-3.143C188.283,77.361,182.457,77.942,182.672,81.575 M170.629,106.186
			c-1.867-1.352-0.699-4.06,0.524-5.236c1.063-1.557,1.62-3.615,3.142-4.713c1.385-3.852,3.911-6.561,5.76-9.948
			c-0.279-1.989-1.635-2.903-1.57-5.236c0.472-4.495,4.753-7.891,9.425-6.805c1.894,0.437,3.501,2.938,4.712,4.71
			c0.528,4.194-0.854,6.478-2.617,8.377c-1.938,0.334-3.117,1.422-5.761,1.048c-2.739,2.497-4.126,6.347-6.282,9.425
			c-0.881,1.514-2.012,3.147-3.143,4.713C173.793,103.942,173.702,106.845,170.629,106.186"/>
		<path clip-path="url(#SVGID_10_)" fill="#FFFFFF" d="M159.109,78.957c2.682,3.298-0.354,8.282-1.569,10.997
			c-2.406,2.133-4.857,4.219-8.379,5.234c-1.815-0.277-4.966,0.778-5.237-1.047c-0.564-3.356,3.323-2.262,5.237-3.141
			c2.559-0.757,3.812-2.823,5.76-4.19c-0.085-0.607,0.116-0.931,0.523-1.047c0.482-2.487,0.779-5.156,2.096-6.807H159.109z"/>
		<path clip-path="url(#SVGID_10_)" fill="#FFFFFF" d="M165.916,79.481c1.621-0.048,1.562,1.58,1.572,3.142
			c-0.959,7.068-4.341,11.717-8.379,15.708c-0.895-0.022-1.355,0.389-1.57,1.047c-2.451,0.689-4.21,2.073-6.806,2.617
			c-2.15,0.383-6.851,1.646-6.808-1.569c0.193-3.125,5.026-1.607,7.331-2.618c6.857-3.093,12.174-7.725,12.043-17.804
			c0.423-0.45,1.434-0.311,1.572-1.047C165.479,78.873,165.802,79.072,165.916,79.481"/>
		<path clip-path="url(#SVGID_10_)" fill="#FFFFFF" d="M129.264,115.087c-0.274-3.782-7.132-3.441-5.76,1.572
			C125.125,118.818,129.227,118.546,129.264,115.087 M127.692,122.418h-3.141v-0.523c-2.659-0.291-4.815-2.414-5.237-5.235
			c-0.38-2.546,0.772-4.647,1.571-6.809c-1.942-3.294-3.734-6.739-5.76-9.947c-0.597-2.021-2.256-2.981-2.617-5.237
			c-1.852-0.515-2.214-4.353,0-4.712c4.36,0.7,4.176,5.945,6.806,8.378c1.491,3.572,3.911,6.211,5.237,9.948
			C135.167,106.35,135.629,121.06,127.692,122.418"/>
		<path clip-path="url(#SVGID_10_)" fill="#FFFFFF" d="M166.44,118.229c1.354-0.739,2.498-1.693,2.095-4.19
			c-0.408-0.114-0.608-0.438-0.523-1.047C162.957,109.911,160.588,118.673,166.44,118.229 M167.488,122.418h-3.143v-0.523
			c-3.73,0.239-3.568-3.412-6.283-4.188c-3.226-0.02-7.921,0.021-12.043,0c-3.817-0.022-9.27,1.429-8.901-3.144
			c0.602-1.72,2.764-0.97,4.188-1.048c5.88-0.321,11.982,0.244,17.279,0c1.629-2.212,2.799-4.88,6.285-5.235
			c5.701-0.115,8.242,2.926,7.853,8.901C171.963,119.911,169.811,121.249,167.488,122.418"/>
	</g>
	<g>
		<path fill="#FFFFFF" d="M113.015,156.414c0,0.095-0.031,0.18-0.092,0.255c-0.061,0.075-0.163,0.137-0.304,0.184
			c-0.142,0.048-0.331,0.086-0.566,0.113c-0.236,0.029-0.538,0.043-0.906,0.043c-0.359,0-0.659-0.014-0.899-0.043
			c-0.241-0.027-0.432-0.065-0.574-0.113c-0.142-0.047-0.243-0.108-0.304-0.184c-0.062-0.075-0.092-0.16-0.092-0.255V139.11
			c0-0.095,0.031-0.18,0.092-0.255c0.061-0.075,0.165-0.137,0.312-0.185c0.146-0.047,0.337-0.084,0.573-0.113
			c0.236-0.027,0.533-0.042,0.892-0.042c0.368,0,0.67,0.015,0.906,0.042c0.236,0.029,0.425,0.066,0.566,0.113
			c0.142,0.048,0.243,0.109,0.304,0.185c0.062,0.075,0.092,0.16,0.092,0.255V156.414z"/>
		<path fill="#FFFFFF" d="M129.568,149.999c0,1.076-0.142,2.059-0.425,2.945c-0.283,0.888-0.713,1.652-1.289,2.295
			c-0.576,0.642-1.298,1.137-2.167,1.486s-1.883,0.523-3.044,0.523c-1.124,0-2.101-0.155-2.931-0.467s-1.52-0.765-2.067-1.359
			s-0.954-1.326-1.218-2.195c-0.264-0.868-0.396-1.859-0.396-2.973c0-1.076,0.144-2.061,0.432-2.953
			c0.288-0.892,0.72-1.656,1.296-2.294c0.576-0.637,1.296-1.13,2.159-1.479c0.864-0.35,1.876-0.523,3.038-0.523
			c1.133,0,2.115,0.153,2.945,0.46s1.518,0.757,2.06,1.353c0.543,0.594,0.947,1.326,1.211,2.194S129.568,148.876,129.568,149.999z
			 M125.901,150.142c0-0.623-0.049-1.197-0.149-1.721c-0.099-0.524-0.267-0.979-0.502-1.367c-0.236-0.387-0.55-0.688-0.942-0.906
			c-0.392-0.217-0.885-0.325-1.479-0.325c-0.529,0-0.991,0.097-1.388,0.29s-0.722,0.477-0.977,0.85s-0.446,0.821-0.574,1.346
			c-0.127,0.523-0.191,1.121-0.191,1.791c0,0.623,0.052,1.196,0.156,1.721c0.104,0.523,0.271,0.979,0.503,1.366
			c0.231,0.387,0.545,0.687,0.941,0.899c0.396,0.212,0.887,0.318,1.473,0.318c0.538,0,1.005-0.097,1.402-0.29
			s0.722-0.475,0.977-0.843s0.444-0.814,0.566-1.338C125.839,151.408,125.901,150.812,125.901,150.142z"/>
		<path fill="#FFFFFF" d="M144.791,140.13c0,0.273-0.012,0.508-0.036,0.701c-0.023,0.193-0.059,0.349-0.106,0.467
			s-0.106,0.205-0.177,0.262c-0.07,0.057-0.148,0.086-0.233,0.086h-4.588v14.769c0,0.095-0.031,0.18-0.092,0.255
			c-0.062,0.075-0.163,0.137-0.305,0.184c-0.142,0.048-0.333,0.086-0.573,0.113c-0.241,0.029-0.541,0.043-0.899,0.043
			s-0.658-0.014-0.899-0.043c-0.24-0.027-0.432-0.065-0.573-0.113c-0.142-0.047-0.243-0.108-0.305-0.184
			c-0.061-0.075-0.092-0.16-0.092-0.255v-14.769h-4.588c-0.094,0-0.175-0.029-0.241-0.086s-0.123-0.144-0.17-0.262
			s-0.083-0.273-0.106-0.467c-0.024-0.193-0.036-0.428-0.036-0.701c0-0.283,0.012-0.523,0.036-0.723
			c0.023-0.197,0.059-0.355,0.106-0.474s0.104-0.203,0.17-0.255s0.146-0.078,0.241-0.078h12.914c0.085,0,0.163,0.026,0.233,0.078
			c0.071,0.052,0.13,0.137,0.177,0.255s0.083,0.276,0.106,0.474C144.779,139.606,144.791,139.847,144.791,140.13z"/>
	</g>
</g>
<g>
	<path fill="#FFFFFF" d="M120.173,180.407c0,0.974-0.182,1.828-0.544,2.563c-0.363,0.735-0.854,1.348-1.474,1.84
		c-0.621,0.492-1.346,0.861-2.176,1.109c-0.83,0.248-1.718,0.372-2.663,0.372c-0.64,0-1.234-0.052-1.782-0.157
		c-0.549-0.105-1.033-0.231-1.453-0.379c-0.42-0.148-0.771-0.303-1.052-0.465c-0.282-0.162-0.484-0.305-0.608-0.43
		c-0.125-0.124-0.212-0.303-0.265-0.537c-0.052-0.234-0.079-0.57-0.079-1.009c0-0.296,0.009-0.544,0.029-0.745
		c0.019-0.2,0.05-0.362,0.093-0.486s0.101-0.212,0.172-0.265c0.072-0.052,0.155-0.079,0.25-0.079c0.134,0,0.322,0.079,0.565,0.236
		c0.244,0.157,0.556,0.332,0.938,0.522c0.381,0.191,0.837,0.365,1.367,0.522c0.529,0.157,1.143,0.236,1.839,0.236
		c0.458,0,0.869-0.055,1.231-0.165c0.362-0.11,0.67-0.265,0.923-0.465c0.252-0.201,0.446-0.449,0.58-0.745s0.201-0.625,0.201-0.988
		c0-0.42-0.115-0.78-0.344-1.081c-0.229-0.301-0.527-0.568-0.895-0.802c-0.367-0.234-0.785-0.453-1.252-0.659
		c-0.468-0.205-0.95-0.422-1.446-0.651c-0.497-0.229-0.979-0.489-1.446-0.78c-0.468-0.291-0.886-0.639-1.253-1.045
		s-0.666-0.885-0.895-1.439c-0.229-0.553-0.344-1.217-0.344-1.99c0-0.888,0.165-1.668,0.494-2.341
		c0.329-0.673,0.773-1.231,1.331-1.675c0.559-0.444,1.217-0.775,1.976-0.995c0.759-0.219,1.563-0.329,2.413-0.329
		c0.438,0,0.878,0.034,1.317,0.1c0.439,0.067,0.849,0.158,1.231,0.272c0.382,0.115,0.721,0.244,1.017,0.387s0.491,0.263,0.587,0.358
		c0.095,0.095,0.16,0.177,0.193,0.243c0.033,0.067,0.062,0.155,0.086,0.265c0.023,0.11,0.041,0.248,0.05,0.415
		c0.01,0.167,0.015,0.375,0.015,0.623c0,0.277-0.007,0.511-0.021,0.702c-0.015,0.191-0.039,0.349-0.072,0.472
		c-0.034,0.125-0.081,0.215-0.143,0.272c-0.062,0.057-0.146,0.085-0.25,0.085s-0.272-0.066-0.501-0.2s-0.511-0.279-0.845-0.437
		c-0.334-0.158-0.721-0.301-1.16-0.43s-0.921-0.193-1.446-0.193c-0.411,0-0.769,0.05-1.074,0.15c-0.306,0.1-0.561,0.239-0.766,0.415
		c-0.205,0.177-0.358,0.389-0.458,0.637c-0.1,0.249-0.15,0.511-0.15,0.788c0,0.41,0.112,0.766,0.336,1.066s0.525,0.568,0.902,0.802
		s0.804,0.453,1.281,0.658c0.478,0.206,0.964,0.422,1.46,0.651c0.496,0.229,0.983,0.489,1.46,0.78
		c0.478,0.292,0.902,0.64,1.274,1.045s0.673,0.883,0.902,1.432S120.173,179.663,120.173,180.407z"/>
	<path fill="#FFFFFF" d="M140.447,176.484c0,1.537-0.191,2.911-0.573,4.123s-0.95,2.24-1.704,3.085s-1.687,1.489-2.798,1.933
		c-1.112,0.444-2.398,0.666-3.858,0.666c-1.441,0-2.698-0.188-3.772-0.565s-1.969-0.952-2.685-1.725
		c-0.716-0.773-1.252-1.756-1.61-2.949s-0.537-2.605-0.537-4.238c0-1.498,0.19-2.846,0.572-4.044s0.95-2.217,1.704-3.057
		s1.687-1.484,2.799-1.933s2.403-0.673,3.873-0.673c1.403,0,2.641,0.186,3.715,0.558c1.074,0.373,1.971,0.945,2.691,1.718
		c0.721,0.773,1.265,1.749,1.632,2.927C140.263,173.49,140.447,174.881,140.447,176.484z M136.496,176.685
		c0-0.973-0.077-1.858-0.229-2.655c-0.153-0.797-0.413-1.479-0.78-2.047s-0.856-1.007-1.467-1.317s-1.375-0.465-2.291-0.465
		c-0.926,0-1.699,0.174-2.319,0.522c-0.62,0.349-1.122,0.814-1.503,1.396c-0.382,0.582-0.651,1.262-0.809,2.04
		c-0.157,0.778-0.236,1.601-0.236,2.469c0,1.012,0.076,1.921,0.229,2.727c0.152,0.807,0.41,1.496,0.773,2.069
		c0.362,0.573,0.849,1.009,1.46,1.31c0.611,0.3,1.379,0.451,2.305,0.451c0.925,0,1.699-0.172,2.319-0.515
		c0.621-0.344,1.122-0.811,1.503-1.403c0.381-0.591,0.651-1.281,0.809-2.068C136.417,178.41,136.496,177.572,136.496,176.685z"/>
	<path fill="#FFFFFF" d="M154.522,184.387c0,0.286-0.012,0.527-0.036,0.723c-0.024,0.195-0.06,0.357-0.107,0.486
		c-0.048,0.129-0.107,0.222-0.179,0.279s-0.155,0.086-0.25,0.086h-8.489c-0.315,0-0.58-0.093-0.794-0.279
		c-0.215-0.186-0.322-0.489-0.322-0.909v-16.821c0-0.095,0.031-0.181,0.093-0.258c0.062-0.076,0.165-0.138,0.308-0.186
		s0.336-0.086,0.58-0.115c0.244-0.028,0.546-0.043,0.909-0.043c0.372,0,0.678,0.015,0.916,0.043c0.239,0.029,0.43,0.067,0.573,0.115
		s0.246,0.11,0.308,0.186c0.062,0.077,0.093,0.163,0.093,0.258v14.903h5.827c0.095,0,0.179,0.026,0.25,0.079
		c0.072,0.053,0.131,0.139,0.179,0.258c0.047,0.119,0.083,0.277,0.107,0.472C154.51,183.859,154.522,184.101,154.522,184.387z"/>
	<path fill="#FFFFFF" d="M171.876,179.061c0,1.136-0.167,2.152-0.501,3.049c-0.334,0.897-0.826,1.656-1.475,2.276
		c-0.649,0.621-1.451,1.093-2.405,1.417c-0.955,0.325-2.052,0.487-3.292,0.487c-1.165,0-2.209-0.146-3.135-0.437
		s-1.708-0.732-2.348-1.324c-0.64-0.592-1.129-1.329-1.468-2.212c-0.339-0.882-0.508-1.916-0.508-3.099v-11.267
		c0-0.095,0.028-0.181,0.086-0.258c0.057-0.076,0.16-0.138,0.308-0.186s0.341-0.086,0.58-0.115c0.239-0.028,0.544-0.043,0.917-0.043
		c0.362,0,0.663,0.015,0.902,0.043c0.238,0.029,0.429,0.067,0.573,0.115c0.143,0.048,0.246,0.11,0.308,0.186
		c0.062,0.077,0.093,0.163,0.093,0.258v10.937c0,0.735,0.09,1.372,0.272,1.912c0.181,0.539,0.441,0.985,0.78,1.338
		s0.745,0.618,1.217,0.794c0.472,0.177,1,0.265,1.582,0.265c0.592,0,1.122-0.09,1.589-0.272c0.467-0.181,0.863-0.446,1.188-0.794
		c0.324-0.348,0.575-0.778,0.751-1.289c0.177-0.51,0.265-1.09,0.265-1.739v-11.152c0-0.095,0.028-0.181,0.086-0.258
		c0.057-0.076,0.157-0.138,0.3-0.186c0.144-0.048,0.336-0.086,0.58-0.115c0.243-0.028,0.546-0.043,0.909-0.043
		c0.362,0,0.661,0.015,0.895,0.043c0.234,0.029,0.422,0.067,0.565,0.115s0.244,0.11,0.301,0.186
		c0.057,0.077,0.086,0.163,0.086,0.258V179.061z"/>
	<path fill="#FFFFFF" d="M188.958,168.983c0,0.277-0.012,0.513-0.036,0.708c-0.024,0.196-0.06,0.353-0.107,0.473
		c-0.048,0.119-0.107,0.208-0.179,0.265c-0.072,0.057-0.15,0.086-0.236,0.086h-4.638v14.932c0,0.095-0.031,0.181-0.093,0.257
		c-0.062,0.077-0.165,0.139-0.308,0.186c-0.143,0.048-0.336,0.086-0.58,0.115c-0.243,0.029-0.546,0.043-0.909,0.043
		c-0.363,0-0.666-0.014-0.909-0.043s-0.437-0.067-0.58-0.115c-0.144-0.047-0.246-0.109-0.308-0.186
		c-0.062-0.076-0.093-0.162-0.093-0.257v-14.932h-4.639c-0.095,0-0.177-0.029-0.243-0.086c-0.067-0.057-0.124-0.146-0.172-0.265
		c-0.048-0.12-0.083-0.277-0.107-0.473c-0.024-0.195-0.036-0.432-0.036-0.708c0-0.287,0.012-0.53,0.036-0.73
		c0.024-0.2,0.06-0.36,0.107-0.479c0.048-0.119,0.105-0.205,0.172-0.257c0.066-0.053,0.148-0.079,0.243-0.079h13.056
		c0.086,0,0.165,0.026,0.236,0.079c0.071,0.052,0.131,0.138,0.179,0.257c0.048,0.12,0.083,0.279,0.107,0.479
		C188.945,168.453,188.958,168.696,188.958,168.983z"/>
	<path fill="#FFFFFF" d="M195.66,185.446c0,0.095-0.031,0.181-0.093,0.257c-0.063,0.077-0.165,0.139-0.308,0.186
		c-0.143,0.048-0.334,0.086-0.573,0.115c-0.238,0.029-0.544,0.043-0.916,0.043c-0.363,0-0.666-0.014-0.909-0.043
		c-0.243-0.029-0.437-0.067-0.58-0.115c-0.143-0.047-0.246-0.109-0.308-0.186c-0.063-0.076-0.093-0.162-0.093-0.257v-17.494
		c0-0.095,0.031-0.181,0.093-0.258c0.062-0.076,0.167-0.138,0.315-0.186c0.147-0.048,0.341-0.086,0.58-0.115
		c0.238-0.028,0.539-0.043,0.902-0.043c0.372,0,0.678,0.015,0.916,0.043c0.239,0.029,0.43,0.067,0.573,0.115s0.246,0.11,0.308,0.186
		c0.062,0.077,0.093,0.163,0.093,0.258V185.446z"/>
	<path fill="#FFFFFF" d="M217.094,176.484c0,1.537-0.191,2.911-0.573,4.123s-0.95,2.24-1.704,3.085s-1.687,1.489-2.798,1.933
		c-1.112,0.444-2.398,0.666-3.858,0.666c-1.441,0-2.698-0.188-3.772-0.565s-1.969-0.952-2.685-1.725
		c-0.716-0.773-1.252-1.756-1.61-2.949s-0.537-2.605-0.537-4.238c0-1.498,0.19-2.846,0.572-4.044s0.95-2.217,1.704-3.057
		s1.687-1.484,2.799-1.933s2.403-0.673,3.873-0.673c1.403,0,2.641,0.186,3.715,0.558c1.074,0.373,1.971,0.945,2.691,1.718
		c0.721,0.773,1.265,1.749,1.632,2.927C216.91,173.49,217.094,174.881,217.094,176.484z M213.143,176.685
		c0-0.973-0.077-1.858-0.229-2.655c-0.153-0.797-0.413-1.479-0.78-2.047s-0.856-1.007-1.467-1.317s-1.375-0.465-2.291-0.465
		c-0.926,0-1.699,0.174-2.319,0.522c-0.62,0.349-1.122,0.814-1.503,1.396c-0.382,0.582-0.651,1.262-0.809,2.04
		c-0.157,0.778-0.236,1.601-0.236,2.469c0,1.012,0.076,1.921,0.229,2.727c0.152,0.807,0.41,1.496,0.773,2.069
		c0.362,0.573,0.849,1.009,1.46,1.31c0.611,0.3,1.379,0.451,2.305,0.451c0.925,0,1.699-0.172,2.319-0.515
		c0.621-0.344,1.122-0.811,1.503-1.403c0.381-0.591,0.651-1.281,0.809-2.068C213.064,178.41,213.143,177.572,213.143,176.685z"/>
	<path fill="#FFFFFF" d="M236.266,184.645c0,0.22-0.038,0.415-0.114,0.587c-0.077,0.172-0.179,0.315-0.308,0.429
		c-0.129,0.115-0.281,0.198-0.458,0.25c-0.177,0.053-0.355,0.079-0.537,0.079h-1.604c-0.334,0-0.623-0.034-0.866-0.101
		c-0.243-0.066-0.468-0.188-0.673-0.365s-0.403-0.415-0.594-0.716s-0.406-0.689-0.644-1.167l-4.61-8.661
		c-0.267-0.515-0.539-1.071-0.816-1.667s-0.525-1.176-0.744-1.74h-0.029c0.038,0.688,0.067,1.373,0.086,2.055
		s0.029,1.386,0.029,2.111v9.692c0,0.096-0.027,0.182-0.079,0.258c-0.052,0.077-0.143,0.141-0.272,0.193s-0.303,0.093-0.522,0.122
		s-0.501,0.043-0.845,0.043c-0.334,0-0.611-0.014-0.83-0.043c-0.22-0.029-0.392-0.069-0.516-0.122s-0.21-0.117-0.257-0.193
		c-0.048-0.076-0.072-0.162-0.072-0.258v-16.649c0-0.448,0.131-0.785,0.394-1.009c0.263-0.224,0.584-0.336,0.966-0.336h2.019
		c0.363,0,0.668,0.031,0.917,0.093c0.248,0.062,0.47,0.165,0.666,0.308c0.195,0.143,0.379,0.341,0.551,0.594s0.348,0.565,0.53,0.938
		l3.607,6.771c0.21,0.411,0.417,0.814,0.623,1.21s0.403,0.792,0.594,1.188s0.377,0.785,0.558,1.167
		c0.182,0.382,0.358,0.764,0.53,1.145h0.015c-0.029-0.668-0.05-1.365-0.064-2.09c-0.015-0.726-0.021-1.417-0.021-2.076v-8.689
		c0-0.095,0.028-0.181,0.086-0.258c0.057-0.076,0.152-0.143,0.286-0.2c0.133-0.058,0.31-0.098,0.53-0.122
		c0.219-0.023,0.501-0.036,0.845-0.036c0.324,0,0.596,0.012,0.816,0.036c0.219,0.024,0.389,0.064,0.508,0.122
		c0.119,0.057,0.203,0.124,0.25,0.2c0.047,0.077,0.071,0.163,0.071,0.258V184.645z"/>
	<path fill="#FFFFFF" d="M252.016,180.407c0,0.974-0.182,1.828-0.544,2.563c-0.363,0.735-0.854,1.348-1.474,1.84
		c-0.621,0.492-1.346,0.861-2.176,1.109c-0.83,0.248-1.718,0.372-2.663,0.372c-0.64,0-1.234-0.052-1.782-0.157
		c-0.549-0.105-1.033-0.231-1.453-0.379c-0.42-0.148-0.771-0.303-1.052-0.465c-0.282-0.162-0.484-0.305-0.608-0.43
		c-0.125-0.124-0.212-0.303-0.265-0.537c-0.052-0.234-0.079-0.57-0.079-1.009c0-0.296,0.009-0.544,0.029-0.745
		c0.019-0.2,0.05-0.362,0.093-0.486s0.101-0.212,0.172-0.265c0.072-0.052,0.155-0.079,0.25-0.079c0.134,0,0.322,0.079,0.565,0.236
		c0.244,0.157,0.556,0.332,0.938,0.522c0.381,0.191,0.837,0.365,1.367,0.522c0.529,0.157,1.143,0.236,1.839,0.236
		c0.458,0,0.869-0.055,1.231-0.165c0.362-0.11,0.67-0.265,0.923-0.465c0.252-0.201,0.446-0.449,0.58-0.745s0.201-0.625,0.201-0.988
		c0-0.42-0.115-0.78-0.344-1.081c-0.229-0.301-0.527-0.568-0.895-0.802c-0.367-0.234-0.785-0.453-1.252-0.659
		c-0.468-0.205-0.95-0.422-1.446-0.651c-0.497-0.229-0.979-0.489-1.446-0.78c-0.468-0.291-0.886-0.639-1.253-1.045
		s-0.666-0.885-0.895-1.439c-0.229-0.553-0.344-1.217-0.344-1.99c0-0.888,0.165-1.668,0.494-2.341
		c0.329-0.673,0.773-1.231,1.331-1.675c0.559-0.444,1.217-0.775,1.976-0.995c0.759-0.219,1.563-0.329,2.413-0.329
		c0.438,0,0.878,0.034,1.317,0.1c0.439,0.067,0.849,0.158,1.231,0.272c0.382,0.115,0.721,0.244,1.017,0.387s0.491,0.263,0.587,0.358
		c0.095,0.095,0.16,0.177,0.193,0.243c0.033,0.067,0.062,0.155,0.086,0.265c0.023,0.11,0.041,0.248,0.05,0.415
		c0.01,0.167,0.015,0.375,0.015,0.623c0,0.277-0.007,0.511-0.021,0.702c-0.015,0.191-0.039,0.349-0.072,0.472
		c-0.034,0.125-0.081,0.215-0.143,0.272c-0.062,0.057-0.146,0.085-0.25,0.085s-0.272-0.066-0.501-0.2s-0.511-0.279-0.845-0.437
		c-0.334-0.158-0.721-0.301-1.16-0.43s-0.921-0.193-1.446-0.193c-0.411,0-0.769,0.05-1.074,0.15c-0.306,0.1-0.561,0.239-0.766,0.415
		c-0.205,0.177-0.358,0.389-0.458,0.637c-0.1,0.249-0.15,0.511-0.15,0.788c0,0.41,0.112,0.766,0.336,1.066s0.525,0.568,0.902,0.802
		s0.804,0.453,1.281,0.658c0.478,0.206,0.964,0.422,1.46,0.651c0.496,0.229,0.983,0.489,1.46,0.78
		c0.478,0.292,0.902,0.64,1.274,1.045s0.673,0.883,0.902,1.432S252.016,179.663,252.016,180.407z"/>
</g>
</svg>
