<?xml version="1.0" encoding="utf-8"?>
<!-- Generator: Adobe Illustrator 15.0.0, SVG Export Plug-In . SVG Version: 6.00 Build 0)  -->
<!DOCTYPE svg PUBLIC "-//W3C//DTD SVG 1.1//EN" "http://www.w3.org/Graphics/SVG/1.1/DTD/svg11.dtd">
<svg version="1.1" id="Layer_1" xmlns="http://www.w3.org/2000/svg" xmlns:xlink="http://www.w3.org/1999/xlink" x="0px" y="0px"
	 width="303.02px" height="300.473px" viewBox="0 0 303.02 300.473" enable-background="new 0 0 303.02 300.473"
	 xml:space="preserve">
<g>
	<g>
		<defs>
			<rect id="SVGID_1_" y="11.409" width="303.02" height="289.082"/>
		</defs>
		<clipPath id="SVGID_2_">
			<use xlink:href="#SVGID_1_"  overflow="visible"/>
		</clipPath>
		<path clip-path="url(#SVGID_2_)" fill="#FFFFFF" d="M85.835,300.49h-19c-0.022-3.427-0.298-6.785-0.804-10.051l0.092-0.023
			l10.35,7.775l8.533-9.292C85.536,292.694,85.81,296.558,85.835,300.49"/>
		<path clip-path="url(#SVGID_2_)" fill="#FFFFFF" d="M0,233.286v-18.997c0.506,0,0.989,0.021,1.496,0.021l10.188,10.466
			L2.3,233.263v0.114C1.541,233.309,0.782,233.286,0,233.286"/>
		<path clip-path="url(#SVGID_2_)" fill="#FFFFFF" d="M85.006,288.899c-5.773-41.421-40.802-73.461-83.51-74.588
			c-0.507,0-0.99-0.023-1.496-0.023v-16.259c56.028,0.436,101.313,45.999,101.313,102.117v0.345H85.835
			C85.811,296.558,85.537,292.694,85.006,288.899"/>
		<path clip-path="url(#SVGID_2_)" fill="#FFFFFF" d="M66.835,300.49H0v-67.205c0.781,0,1.541,0.023,2.3,0.092
			c32.383,1.449,58.833,25.692,63.732,57.062C66.537,293.706,66.813,297.063,66.835,300.49"/>
	</g>
	<g>
		<defs>
			<path id="SVGID_3_" d="M11.685,224.776L2.3,233.263v0.113c32.384,1.45,58.833,25.692,63.732,57.063l0.092-0.023l10.35,7.775
				l8.532-9.292c-5.773-41.421-40.802-73.461-83.51-74.588L11.685,224.776z"/>
		</defs>
		<clipPath id="SVGID_4_">
			<use xlink:href="#SVGID_3_"  overflow="visible"/>
		</clipPath>
		
			<linearGradient id="SVGID_5_" gradientUnits="userSpaceOnUse" x1="0.9863" y1="600.0391" x2="1.9863" y2="600.0391" gradientTransform="matrix(83.5121 0 0 -83.5121 -80.9188 50366.8047)">
			<stop  offset="0" style="stop-color:#FEBE2A"/>
			<stop  offset="1" style="stop-color:#F78E21"/>
		</linearGradient>
		<rect x="1.496" y="214.311" clip-path="url(#SVGID_4_)" fill="url(#SVGID_5_)" width="83.51" height="83.88"/>
	</g>
	<g>
		<defs>
			<path id="SVGID_6_" d="M7.935,11.41C5.267,11.41,2.621,11.43,0,11.5v186.503v0.024c56.028,0.436,101.313,45.999,101.313,102.117
				v0.345h0.069H303.02C299.799,140.274,168.91,11.41,7.935,11.41z"/>
		</defs>
		<clipPath id="SVGID_7_">
			<use xlink:href="#SVGID_6_"  overflow="visible"/>
		</clipPath>
		
			<linearGradient id="SVGID_8_" gradientUnits="userSpaceOnUse" x1="0.0815" y1="597.1738" x2="1.0813" y2="597.1738" gradientTransform="matrix(157.4261 123.8822 123.8822 -157.4261 -73958.2813 94064.0859)">
			<stop  offset="0" style="stop-color:#FEBE2A"/>
			<stop  offset="1" style="stop-color:#F78E21"/>
		</linearGradient>
		<polygon clip-path="url(#SVGID_7_)" fill="url(#SVGID_8_)" points="115.884,-135.852 443.508,121.962 187.137,447.752 
			-140.488,189.938 		"/>
	</g>
	<g>
		<defs>
			<rect id="SVGID_9_" y="11.409" width="303.02" height="289.082"/>
		</defs>
		<clipPath id="SVGID_10_">
			<use xlink:href="#SVGID_9_"  overflow="visible"/>
		</clipPath>
		<path clip-path="url(#SVGID_10_)" fill="#8E6C4F" d="M13.894,11.468c3.315,0.065,6.619,0.186,9.906,0.359
			C20.99,11.583,17.414,11.486,13.894,11.468"/>
		<g opacity="0.6" clip-path="url(#SVGID_10_)">
			<g>
				<defs>
					<rect id="SVGID_11_" x="-8.993" y="10.463" width="45.599" height="187.678"/>
				</defs>
				<clipPath id="SVGID_12_">
					<use xlink:href="#SVGID_11_"  overflow="visible"/>
				</clipPath>
				<defs>
					<filter id="Adobe_OpacityMaskFilter" filterUnits="userSpaceOnUse" x="-8.993" y="10.463" width="45.599" height="187.678">
						<feFlood  style="flood-color:white;flood-opacity:1" result="back"/>
						<feBlend  in="SourceGraphic" in2="back" mode="normal"/>
					</filter>
				</defs>
				<mask maskUnits="userSpaceOnUse" x="-8.993" y="10.463" width="45.599" height="187.678" id="SVGID_13_">
					<g filter="url(#Adobe_OpacityMaskFilter)">
						
							<linearGradient id="SVGID_14_" gradientUnits="userSpaceOnUse" x1="0.9653" y1="610.0723" x2="1.9653" y2="610.0723" gradientTransform="matrix(27.6 0 0 -27.6 -26.6377 16942.3066)">
							<stop  offset="0" style="stop-color:#FFFFFF"/>
							<stop  offset="0.975" style="stop-color:#000000"/>
							<stop  offset="0.9965" style="stop-color:#000000"/>
							<stop  offset="1" style="stop-color:#000000"/>
						</linearGradient>
						<rect x="-8.993" y="10.463" clip-path="url(#SVGID_12_)" fill="url(#SVGID_14_)" width="45.599" height="187.678"/>
					</g>
				</mask>
				<g clip-path="url(#SVGID_12_)" mask="url(#SVGID_13_)">
					<g>
						<defs>
							<rect id="SVGID_15_" x="-8.993" y="10.463" width="45.599" height="187.678"/>
						</defs>
						<clipPath id="SVGID_16_">
							<use xlink:href="#SVGID_15_"  overflow="visible"/>
						</clipPath>
						<path clip-path="url(#SVGID_16_)" fill="#8E5B1E" d="M12.52,11.463c-6.543,0-12.513,0.238-12.513,0.238v185.44l27.6-184.763
							c-0.948-0.237-2.262-0.417-3.807-0.551c-3.287-0.174-6.59-0.294-9.906-0.358C13.434,11.464,12.975,11.463,12.52,11.463"/>
					</g>
				</g>
			</g>
		</g>
		<path clip-path="url(#SVGID_10_)" fill="#FFFFFF" d="M90.646,70.574h0.466c0.66,0.811,2.211,3.447,0.703,4.214
			C90.33,74.515,89.42,71.405,90.646,70.574"/>
		<path clip-path="url(#SVGID_10_)" fill="#FFFFFF" d="M99.307,71.275c0.543,1.684-0.41,3.77-2.107,3.98
			C96.285,73.941,97.465,71.324,99.307,71.275"/>
		<path clip-path="url(#SVGID_10_)" fill="#FFFFFF" d="M166.271,126.532c-0.6,0.882-1.86,1.105-2.341,2.106v2.811
			c-0.95,0.454-1.955,0.854-2.108,2.106c-0.315,2.346,1.629,2.43,2.576,3.513c-0.182,1.429,0.452,2.045,0.937,2.809
			c0.655,0.281,1.614,0.256,2.575,0.234c1.055-0.352,0.879-1.932,2.107-2.107c1.627,1.642,5.415,2.447,6.556-0.234
			c0.172-1.656-0.204-2.761-0.701-3.746c0.597-0.964,1.882-1.239,2.105-2.576c0.849-3.813-3.376-2.556-4.683-4.214
			C175.337,121.417,165.383,120.175,166.271,126.532 M95.563,116.463H90.88C91.236,118.313,95.204,118.313,95.563,116.463
			 M149.882,95.86c1.245,0.392,2.81,0.466,2.808,2.106c-0.204,1.212-1.615,1.339-2.808,0.937v3.747
			c0.968,0.671,2.775,0.502,2.808,2.107c-0.271,1.324-1.376,1.567-2.808,1.17v3.746c1.116,0.522,2.721,0.556,2.808,2.108
			c-0.314,1.284-1.636,1.66-2.808,0.936v3.98c1.291,0.347,2.719,0.558,2.808,2.107c-0.082,1.202-1.709,1.449-2.808,0.936v3.981
			c1.356,0.282,2.804,0.474,2.808,2.107c-0.204,1.211-1.615,1.339-2.808,0.936v3.746c1.116,0.522,2.721,0.557,2.808,2.108
			c-0.366,1.229-1.367,1.577-2.808,1.17v3.747c1.271,0.366,2.631,0.646,2.808,2.105c-0.082,1.204-1.709,1.45-2.808,0.938v5.62
			c1.708-0.072,2.862,0.414,4.681,0.233V90.475c-1.461-0.645-2.893-1.319-4.681-1.64V95.86z M118.04,90.241v56.192
			c1.743,0.184,2.791-0.33,4.449-0.233v-5.62c-1.263,0.566-3.023,0.219-2.812-1.405c0.278-1.205,1.708-1.258,2.812-1.638v-3.747
			c-0.705,0.103-2.899,0.459-2.812-1.406c0.27-1.291,1.732-1.391,2.812-1.873v-3.746c-1.25,0.418-2.786,0.276-2.812-1.171
			c0.122-1.439,1.492-1.629,2.812-1.872v-3.981c-1.263,0.566-3.023,0.219-2.812-1.404c0.278-1.205,1.708-1.26,2.812-1.64v-3.98
			c-1.274,0.683-2.632,0.385-2.812-1.17c0.202-1.362,1.781-1.344,2.812-1.874c-0.154-1.251,0.306-3.117-0.235-3.979
			c-0.811,0.857-2.643,0.42-2.577-0.937c0.035-1.605,1.842-1.436,2.812-2.107v-3.747c-1.351,0.478-2.967,0.278-2.812-1.405
			c0.342-1.144,1.613-1.354,2.812-1.638v-7.025C120.75,89.049,119.673,89.924,118.04,90.241 M137.708,75.256v70.474
			c3.3-0.102,6.301,0.098,9.364,0.235V78.534C143.754,77.637,140.803,76.373,137.708,75.256 M134.661,75.49
			c-2.729,0.471-6.082,2.345-9.365,3.044v67.431c3.062-0.138,6.064-0.337,9.365-0.235V75.49z M180.319,130.043v1.639
			c-0.555,1.006-0.766,2.358-1.875,2.81c1.788,4.73-2.576,8.709-7.257,7.023v7.493c2.322,1.58,7.416,0.39,8.428,3.277
			c-0.867,1.791-2.83,0.762-4.214,0.468c-11.234-2.379-24.42-4.092-37.931-4.214c0.915,0.96,3.224,2.55,4.684,3.746
			c3.302,3.571,6.672,9.337,7.025,16.156c0.134,2.613,0.053,6.553-1.64,8.429h-0.702c-0.505-0.432-1.189-0.685-0.938-1.873
			c2.477-14.222-4.825-22.618-14.514-26.222c-4.863-0.024-9.485,0.191-13.58,0.936c5.69,2.832,10.469,9.472,7.958,18.262
			c-0.748,1.202-1.439,2.46-2.107,3.747c-1.232,0.95-2.142,2.227-3.51,3.043c-1.012,0.539-3.43,2.53-4.215,0.469
			c0.022-2.319,2.655-2.027,3.745-3.277c3.831-2.452,5.681-10.304,2.577-14.986c-2.515-3.027-5.596-5.485-9.834-6.79
			c-4.078,0.606-8.227,1.139-11.941,2.107c-3.453-0.359-8.86,3.838-10.537,0.704c1.172-2.495,5.597-1.74,7.962-3.044
			c3.287-0.381,6.111-1.225,9.365-1.639c-0.149-9.999,0.301-20.594-0.233-30.206c-1.112-1.854-2.755-3.178-5.854-3.042
			c-0.273,1.443-1.793,1.642-3.747,1.404c-1.502,5.717-12.242,1.793-8.195-3.98c5.47-0.625,11.895-0.195,16.389,0.936
			c1.27,0.995,2.544,1.984,3.279,3.513c1.558,8.977,0.293,20.78,0.702,30.906c1.906-0.122,3.692-0.368,5.386-0.703
			c0.155-19.512-0.311-39.646,0.233-58.767c2.345-0.935,4.63-1.928,7.26-2.577c0.13-2.988-0.282-6.522,0.232-9.13
			c4.469-1.698,8.977-3.355,13.58-4.916c4.422,1.898,9.701,2.941,13.581,5.384v8.429c2.252,1.182,5.334,1.531,7.256,3.043
			c0.548,19.044,0.079,39.102,0.235,58.535c4.063,0.385,7.669,1.229,11.708,1.64v-6.79c-1.141,0.385-2.667,0.672-3.981,0.232
			c-1.402-0.86-2.62-1.906-2.811-3.979c-1.604-0.737-2.482-2.2-2.809-4.214c-0.312-1.586,1.529-2.701,2.106-4.215
			c0.3-0.786,0.114-1.611,0.469-2.341c0.383-0.788,1.414-1.499,1.874-2.342c1.729-3.178,2.289-5.666,7.025-5.151
			c2.601,0.91,4.647,2.375,4.681,5.854C178.265,126.166,179.609,127.788,180.319,130.043"/>
		<path clip-path="url(#SVGID_10_)" fill="#FFFFFF" d="M95.327,85.323c-0.965,0.518-2.437,0.528-2.809,1.64
			c-0.104,0.805,0.091,1.312,0.233,1.872c1.591,1.153,4.879,0.704,7.728,0.704c2.909,0,6.439,0.708,7.726-0.938
			c-0.053-2.466-2.444-0.22-3.278-1.638C107.832,78.712,94.707,77.609,95.327,85.323 M91.347,84.622
			c3.15-0.911,2.895-5.222,5.853-6.322C93.25,75.104,88.136,80.673,91.347,84.622 M107.269,84.855
			c2.136,0.53,3.979,3.008,2.574,5.619c-3.237,2.555-10.974,0.535-16.622,1.171c-1.089-0.473-1.86-1.261-2.573-2.106
			c0.16-3.204-0.997-4.121-2.109-6.322c-1.458-7.462,7.457-9.668,11.004-5.385C104.472,77.818,107.004,80.204,107.269,84.855"/>
		<path clip-path="url(#SVGID_10_)" fill="#FFFFFF" d="M87.833,78.3c-1.345,1.188-3.087-0.434-3.979-1.171
			C84.186,74.762,87.759,76.798,87.833,78.3"/>
		<path clip-path="url(#SVGID_10_)" fill="#FFFFFF" d="M133.023,82.983c-0.907,1.385-6.5,4.198-6.088,0
			C128.661,82.432,132.701,79.457,133.023,82.983"/>
		<path clip-path="url(#SVGID_10_)" fill="#FFFFFF" d="M145.665,83.685c-0.59,3-5.297,0.742-6.32-0.702
			C139.734,79.571,144.661,82.182,145.665,83.685"/>
		<path clip-path="url(#SVGID_10_)" fill="#FFFFFF" d="M83.621,84.855v-0.468c0.622-0.762,3.51-2.28,4.213-0.703
			C87.401,85.158,84.51,85.904,83.621,84.855"/>
		<path clip-path="url(#SVGID_10_)" fill="#FFFFFF" d="M133.023,90.241c-1.429,1.004-4.129,2.386-5.853,1.638
			c-0.364-0.34-0.207-1.198-0.235-1.873C128.494,89.393,133.065,86.237,133.023,90.241"/>
		<path clip-path="url(#SVGID_10_)" fill="#FFFFFF" d="M145.665,90.942c-0.431,0.036-0.142,0.793-0.467,0.938
			c-2.163,0.492-4.747-0.537-5.853-1.873C139.568,86.447,145.14,89.112,145.665,90.942"/>
		<path clip-path="url(#SVGID_10_)" fill="#FFFFFF" d="M133.023,96.796c-0.865,1.71-3.202,1.95-5.386,2.341
			c-0.216-0.561-0.94-0.619-0.702-1.638C127.646,96.071,132.734,93.624,133.023,96.796"/>
		<path clip-path="url(#SVGID_10_)" fill="#FFFFFF" d="M145.665,97.967c-0.274,0.039-0.195,0.427-0.234,0.702
			c-1.9,0.888-5.166-0.284-6.086-1.873C139.839,93.645,145.261,96.004,145.665,97.967"/>
		<path clip-path="url(#SVGID_10_)" fill="#FFFFFF" d="M133.023,103.82c-1.017,1.459-4.424,3.011-6.088,1.64v-1.405
			C128.13,103.194,132.679,100.548,133.023,103.82"/>
		<path clip-path="url(#SVGID_10_)" fill="#FFFFFF" d="M145.665,104.522c-0.002,0.856-0.663,1.053-0.935,1.641
			c-2.098-0.402-4.15-0.847-5.385-2.108C139.436,100.441,144.924,103.081,145.665,104.522"/>
		<path clip-path="url(#SVGID_10_)" fill="#FFFFFF" d="M132.555,109.205c0.267,0.515,0.604,0.957,0.468,1.874
			c-1.424,1.053-4.436,2.72-6.087,1.405v-1.639C128.496,110.018,130.609,108.913,132.555,109.205"/>
		<path clip-path="url(#SVGID_10_)" fill="#FFFFFF" d="M145.665,111.547c-0.607,2.999-5.416,0.666-6.32-0.937
			C139.878,107.565,144.788,110,145.665,111.547"/>
		<path clip-path="url(#SVGID_10_)" fill="#FFFFFF" d="M133.023,116.932c-0.155,2.627-3.61,3.033-5.853,2.808
			c0.005-0.55-0.405-0.688-0.235-1.403C127.818,116.855,131.726,115.094,133.023,116.932"/>
		<path clip-path="url(#SVGID_10_)" fill="#FFFFFF" d="M145.665,118.805c-0.431,0.035-0.142,0.793-0.467,0.936
			c-2.197,0.527-4.655-0.629-5.853-1.873C139.522,114.355,145.249,116.867,145.665,118.805"/>
		<path clip-path="url(#SVGID_10_)" fill="#FFFFFF" d="M90.177,119.507c1.364,0.704,0.045,3.433-1.639,3.278
			C88.204,121.57,89.401,120.34,90.177,119.507"/>
		<path clip-path="url(#SVGID_10_)" fill="#FFFFFF" d="M95.328,119.741h0.468c1.001,0.543,1.901,1.964,1.639,3.044
			C95.823,122.79,94.983,120.93,95.328,119.741"/>
		<path clip-path="url(#SVGID_10_)" fill="#FFFFFF" d="M92.751,120.209h0.937c0.24,0.997,0.823,3.795-0.937,3.513
			C92.378,122.994,92.378,120.937,92.751,120.209"/>
		<path clip-path="url(#SVGID_10_)" fill="#FFFFFF" d="M133.023,124.659c-0.889,1.688-3.227,1.926-5.386,2.342
			c-0.216-0.563-0.94-0.621-0.702-1.64C127.589,123.873,132.69,121.441,133.023,124.659"/>
		<path clip-path="url(#SVGID_10_)" fill="#FFFFFF" d="M145.665,125.361c0.062,0.685-0.528,0.719-0.467,1.405
			c-2.206,0.112-5.807-0.232-5.853-3.043C141.066,122.259,144.694,123.853,145.665,125.361"/>
		<path clip-path="url(#SVGID_10_)" fill="#FFFFFF" d="M133.023,132.15c-1.584,0.665-6.378,3.818-6.088-0.468
			C128.688,131.097,133.165,127.879,133.023,132.15"/>
		<path clip-path="url(#SVGID_10_)" fill="#FFFFFF" d="M145.665,132.385c-0.661,3.082-4.934,0.575-6.32-0.469
			C139.422,128.108,144.719,130.849,145.665,132.385"/>
		<path clip-path="url(#SVGID_10_)" fill="#FFFFFF" d="M133.023,138.941c-1.358,1.007-3.704,2.194-5.853,1.638
			c-0.27-0.276-0.268-0.827-0.235-1.405C127.819,137.831,133.157,135.021,133.023,138.941"/>
		<path clip-path="url(#SVGID_10_)" fill="#FFFFFF" d="M145.665,139.642c-0.431,0.036-0.142,0.794-0.467,0.938
			c-2.163,0.493-4.747-0.536-5.853-1.873C139.563,135.152,145.168,137.785,145.665,139.642"/>
		<path clip-path="url(#SVGID_10_)" fill="#FFFFFF" d="M133.023,157.671c-0.333-0.021-0.663-0.039-0.703,0.234
			c-2.238-1.274-3.508-3.516-5.15-5.385c-0.189-1.281,0.358-1.826,1.639-1.638C130.667,152.484,134.579,154.888,133.023,157.671"/>
		<path clip-path="url(#SVGID_10_)" fill="#FFFFFF" d="M135.833,168.208c-0.038-0.273-0.426-0.198-0.703-0.234
			c-0.969-1.919-1.039-4.737-1.871-6.79C135.79,156.465,139.473,167.469,135.833,168.208"/>
		<path clip-path="url(#SVGID_10_)" fill="#FFFFFF" d="M135.599,176.636c-1.073,0.138-1.092-0.78-1.639-1.169
			c0.077-2.25,1.299-6.522,3.511-3.746C137.231,173.743,137.375,176.152,135.599,176.636"/>
	</g>
	<g>
		<path fill="#FFFFFF" d="M112.068,203.046c0,0.963-0.179,1.808-0.538,2.536c-0.358,0.727-0.845,1.333-1.458,1.819
			s-1.331,0.851-2.152,1.097c-0.821,0.246-1.699,0.369-2.634,0.369c-0.632,0-1.22-0.053-1.763-0.156
			c-0.542-0.104-1.022-0.229-1.437-0.375c-0.416-0.147-0.763-0.3-1.041-0.461c-0.278-0.16-0.479-0.302-0.602-0.424
			c-0.123-0.123-0.21-0.3-0.262-0.531c-0.052-0.231-0.078-0.564-0.078-0.998c0-0.293,0.009-0.539,0.028-0.736
			c0.019-0.199,0.049-0.359,0.091-0.482c0.043-0.122,0.1-0.21,0.17-0.262c0.071-0.052,0.154-0.078,0.249-0.078
			c0.132,0,0.318,0.078,0.559,0.234c0.24,0.155,0.55,0.328,0.928,0.516c0.377,0.189,0.829,0.362,1.352,0.517
			c0.525,0.156,1.131,0.234,1.82,0.234c0.453,0,0.859-0.055,1.218-0.163c0.359-0.108,0.664-0.263,0.914-0.46
			c0.25-0.199,0.441-0.444,0.574-0.736c0.132-0.293,0.198-0.619,0.198-0.978c0-0.415-0.113-0.771-0.34-1.069
			c-0.227-0.297-0.521-0.562-0.884-0.793c-0.364-0.231-0.777-0.448-1.24-0.651c-0.462-0.203-0.939-0.417-1.43-0.644
			c-0.49-0.227-0.968-0.484-1.43-0.772c-0.463-0.288-0.875-0.632-1.24-1.033c-0.363-0.401-0.658-0.876-0.884-1.423
			c-0.227-0.548-0.34-1.204-0.34-1.969c0-0.878,0.163-1.649,0.489-2.315c0.326-0.665,0.764-1.217,1.317-1.656
			c0.552-0.439,1.203-0.767,1.955-0.984c0.75-0.217,1.545-0.325,2.385-0.325c0.435,0,0.869,0.032,1.303,0.099
			s0.84,0.155,1.218,0.269c0.377,0.113,0.712,0.242,1.005,0.383c0.292,0.142,0.486,0.259,0.58,0.353
			c0.094,0.095,0.158,0.175,0.191,0.241c0.033,0.066,0.061,0.153,0.085,0.262c0.023,0.108,0.04,0.246,0.049,0.411
			c0.009,0.165,0.014,0.37,0.014,0.616c0,0.274-0.007,0.505-0.021,0.694c-0.014,0.188-0.038,0.345-0.07,0.468
			c-0.033,0.122-0.081,0.211-0.142,0.268c-0.062,0.057-0.144,0.085-0.248,0.085s-0.269-0.066-0.496-0.198
			c-0.227-0.132-0.505-0.276-0.835-0.432c-0.331-0.156-0.713-0.298-1.147-0.425c-0.435-0.128-0.911-0.191-1.431-0.191
			c-0.405,0-0.76,0.049-1.062,0.148c-0.302,0.1-0.554,0.236-0.757,0.411s-0.354,0.385-0.453,0.63c-0.1,0.245-0.148,0.505-0.148,0.78
			c0,0.405,0.11,0.756,0.332,1.055c0.222,0.296,0.52,0.561,0.893,0.792c0.373,0.232,0.795,0.448,1.267,0.651
			c0.473,0.203,0.954,0.417,1.445,0.644c0.49,0.226,0.972,0.484,1.444,0.772c0.472,0.288,0.892,0.632,1.26,1.033
			c0.369,0.401,0.666,0.873,0.892,1.416S112.068,202.311,112.068,203.046z"/>
		<path fill="#FFFFFF" d="M136.267,208.031c0,0.094-0.026,0.179-0.078,0.255c-0.052,0.075-0.146,0.137-0.283,0.185
			c-0.137,0.047-0.318,0.084-0.545,0.113c-0.227,0.027-0.515,0.042-0.863,0.042c-0.34,0-0.624-0.015-0.85-0.042
			c-0.227-0.029-0.406-0.066-0.539-0.113c-0.132-0.048-0.227-0.109-0.283-0.185c-0.057-0.076-0.085-0.161-0.085-0.255v-14.91h-0.028
			l-5.31,14.896c-0.038,0.122-0.099,0.223-0.184,0.304c-0.085,0.08-0.201,0.145-0.348,0.191c-0.146,0.047-0.332,0.078-0.559,0.092
			c-0.227,0.015-0.501,0.021-0.821,0.021c-0.321,0-0.595-0.012-0.822-0.035c-0.226-0.023-0.413-0.062-0.559-0.113
			c-0.146-0.052-0.262-0.116-0.348-0.191c-0.085-0.076-0.142-0.165-0.17-0.269l-5.126-14.896h-0.028v14.91
			c0,0.094-0.025,0.179-0.077,0.255c-0.052,0.075-0.149,0.137-0.291,0.185c-0.142,0.047-0.323,0.084-0.545,0.113
			c-0.222,0.027-0.507,0.042-0.856,0.042c-0.34,0-0.623-0.015-0.85-0.042c-0.227-0.029-0.408-0.066-0.545-0.113
			c-0.137-0.048-0.231-0.109-0.283-0.185c-0.052-0.076-0.078-0.161-0.078-0.255v-16.326c0-0.483,0.127-0.85,0.382-1.105
			c0.255-0.254,0.595-0.382,1.02-0.382h2.436c0.434,0,0.807,0.035,1.119,0.106c0.312,0.07,0.581,0.189,0.807,0.354
			c0.227,0.165,0.416,0.382,0.566,0.651c0.151,0.27,0.283,0.603,0.396,0.999l3.965,10.917h0.057l4.106-10.89
			c0.123-0.396,0.257-0.731,0.404-1.005c0.146-0.273,0.316-0.495,0.509-0.665c0.193-0.17,0.422-0.292,0.687-0.362
			c0.264-0.071,0.571-0.106,0.92-0.106h2.506c0.255,0,0.475,0.033,0.659,0.099c0.185,0.066,0.335,0.164,0.453,0.292
			c0.118,0.127,0.208,0.283,0.27,0.466c0.061,0.185,0.092,0.395,0.092,0.631V208.031z"/>
		<path fill="#FFFFFF" d="M155.27,207.153c0.114,0.34,0.185,0.609,0.213,0.808c0.028,0.197-0.009,0.347-0.114,0.445
			c-0.104,0.1-0.288,0.161-0.552,0.185c-0.264,0.023-0.628,0.035-1.09,0.035c-0.482,0-0.857-0.007-1.125-0.021
			c-0.27-0.014-0.475-0.042-0.617-0.085c-0.141-0.042-0.24-0.102-0.297-0.177c-0.057-0.076-0.104-0.175-0.142-0.298l-1.232-3.682
			h-6.882l-1.161,3.583c-0.038,0.132-0.087,0.243-0.148,0.333c-0.062,0.09-0.161,0.161-0.297,0.212
			c-0.137,0.052-0.331,0.088-0.581,0.106c-0.25,0.019-0.578,0.028-0.984,0.028c-0.434,0-0.774-0.015-1.02-0.042
			c-0.246-0.029-0.416-0.098-0.509-0.206c-0.094-0.109-0.127-0.262-0.099-0.46s0.099-0.463,0.212-0.793l5.65-16.255
			c0.057-0.16,0.123-0.29,0.198-0.389c0.076-0.099,0.196-0.175,0.361-0.227c0.166-0.052,0.395-0.085,0.687-0.099
			c0.292-0.015,0.68-0.021,1.161-0.021c0.557,0,1,0.007,1.331,0.021c0.331,0.014,0.587,0.047,0.771,0.099s0.316,0.13,0.397,0.234
			c0.08,0.104,0.148,0.246,0.205,0.425L155.27,207.153z M146.859,193.715h-0.014l-2.591,7.789h5.197L146.859,193.715z"/>
		<path fill="#FFFFFF" d="M171.426,208.06c0,0.103-0.019,0.191-0.057,0.262c-0.038,0.071-0.127,0.13-0.269,0.177
			c-0.142,0.048-0.349,0.081-0.623,0.1c-0.273,0.019-0.646,0.028-1.119,0.028c-0.396,0-0.713-0.01-0.949-0.028
			c-0.235-0.019-0.422-0.055-0.56-0.106c-0.137-0.052-0.233-0.118-0.29-0.198c-0.057-0.081-0.104-0.177-0.142-0.29l-1.643-4.093
			c-0.198-0.462-0.392-0.873-0.58-1.231c-0.189-0.358-0.399-0.658-0.631-0.899c-0.231-0.24-0.497-0.422-0.8-0.545
			c-0.302-0.123-0.651-0.184-1.048-0.184h-1.161v6.98c0,0.094-0.031,0.179-0.092,0.255c-0.062,0.075-0.163,0.137-0.305,0.185
			c-0.141,0.047-0.33,0.084-0.566,0.113c-0.236,0.027-0.538,0.042-0.906,0.042c-0.359,0-0.658-0.015-0.899-0.042
			c-0.241-0.029-0.432-0.066-0.574-0.113c-0.142-0.048-0.24-0.109-0.297-0.185c-0.057-0.076-0.085-0.161-0.085-0.255v-16.639
			c0-0.415,0.106-0.714,0.318-0.898c0.212-0.185,0.475-0.277,0.786-0.277h4.743c0.482,0,0.878,0.01,1.189,0.028
			c0.312,0.019,0.595,0.043,0.85,0.07c0.736,0.105,1.4,0.284,1.989,0.539c0.59,0.254,1.091,0.587,1.501,0.998
			c0.411,0.41,0.724,0.897,0.941,1.458c0.217,0.562,0.326,1.206,0.326,1.933c0,0.615-0.078,1.174-0.233,1.679
			c-0.157,0.505-0.385,0.957-0.688,1.353c-0.302,0.396-0.675,0.74-1.119,1.033s-0.949,0.528-1.515,0.708
			c0.274,0.132,0.531,0.293,0.772,0.481c0.24,0.188,0.467,0.418,0.68,0.687c0.212,0.27,0.413,0.576,0.602,0.921
			c0.189,0.345,0.373,0.733,0.552,1.168l1.543,3.611c0.142,0.358,0.236,0.62,0.283,0.785
			C171.403,207.835,171.426,207.965,171.426,208.06z M166.626,195.627c0-0.604-0.137-1.114-0.41-1.529
			c-0.274-0.415-0.723-0.708-1.346-0.878c-0.189-0.047-0.403-0.085-0.645-0.113c-0.24-0.028-0.573-0.042-0.998-0.042h-1.671v5.196
			h1.897c0.529,0,0.991-0.063,1.388-0.191c0.396-0.127,0.727-0.306,0.991-0.538c0.265-0.231,0.462-0.507,0.595-0.828
			S166.626,196.023,166.626,195.627z"/>
		<path fill="#FFFFFF" d="M186.09,191.748c0,0.273-0.012,0.507-0.035,0.701c-0.024,0.194-0.059,0.349-0.107,0.467
			c-0.047,0.118-0.106,0.206-0.177,0.263c-0.071,0.057-0.149,0.084-0.234,0.084h-4.587v14.77c0,0.094-0.031,0.179-0.092,0.255
			c-0.061,0.075-0.163,0.137-0.305,0.185c-0.141,0.047-0.332,0.084-0.573,0.113c-0.24,0.027-0.54,0.042-0.899,0.042
			s-0.659-0.015-0.899-0.042c-0.241-0.029-0.432-0.066-0.574-0.113c-0.142-0.048-0.243-0.109-0.304-0.185
			c-0.062-0.076-0.092-0.161-0.092-0.255v-14.77h-4.588c-0.094,0-0.175-0.027-0.241-0.084c-0.065-0.057-0.123-0.145-0.17-0.263
			c-0.047-0.118-0.083-0.273-0.106-0.467c-0.023-0.193-0.035-0.428-0.035-0.701c0-0.283,0.012-0.525,0.035-0.722
			c0.024-0.199,0.059-0.356,0.106-0.474s0.104-0.204,0.17-0.255c0.066-0.052,0.146-0.078,0.241-0.078h12.914
			c0.085,0,0.163,0.026,0.234,0.078c0.07,0.052,0.129,0.137,0.177,0.255c0.048,0.118,0.083,0.275,0.107,0.474
			C186.078,191.223,186.09,191.464,186.09,191.748z"/>
	</g>
	<g>
		<path fill="#FFFFFF" d="M114.475,232.046c0,0.651-0.09,1.241-0.269,1.77c-0.179,0.529-0.427,0.996-0.743,1.402
			c-0.316,0.406-0.694,0.755-1.132,1.048c-0.44,0.292-0.923,0.533-1.452,0.722c-0.529,0.189-1.093,0.328-1.691,0.418
			c-0.6,0.09-1.268,0.135-2.004,0.135h-4.872c-0.311,0-0.573-0.092-0.786-0.276c-0.212-0.184-0.318-0.483-0.318-0.899v-15.973
			c0-0.415,0.106-0.715,0.318-0.898c0.213-0.185,0.475-0.276,0.786-0.276h4.602c1.124,0,2.075,0.094,2.853,0.283
			c0.779,0.188,1.436,0.475,1.969,0.856c0.534,0.383,0.941,0.867,1.225,1.451c0.284,0.586,0.425,1.276,0.425,2.068
			c0,0.444-0.056,0.861-0.17,1.253c-0.113,0.392-0.278,0.748-0.496,1.069c-0.217,0.32-0.483,0.604-0.8,0.85
			c-0.316,0.246-0.677,0.443-1.083,0.594c0.519,0.095,0.998,0.26,1.438,0.496c0.438,0.237,0.821,0.54,1.146,0.913
			c0.326,0.374,0.583,0.81,0.772,1.31C114.381,230.862,114.475,231.423,114.475,232.046z M109.661,224.33
			c0-0.37-0.057-0.7-0.17-0.992c-0.113-0.292-0.283-0.536-0.51-0.729c-0.227-0.193-0.512-0.342-0.856-0.446
			c-0.345-0.104-0.805-0.156-1.381-0.156h-1.883v4.758h2.082c0.538,0,0.967-0.064,1.289-0.191c0.32-0.128,0.587-0.302,0.8-0.524
			c0.213-0.222,0.37-0.481,0.474-0.778C109.609,224.973,109.661,224.66,109.661,224.33z M110.609,232.173
			c0-0.424-0.071-0.805-0.212-1.14c-0.141-0.335-0.349-0.616-0.623-0.843s-0.623-0.4-1.048-0.523
			c-0.425-0.123-0.977-0.184-1.656-0.184h-2.209v5.211h2.69c0.52,0,0.956-0.055,1.31-0.164c0.355-0.108,0.661-0.269,0.921-0.481
			c0.259-0.213,0.463-0.477,0.608-0.793C110.536,232.941,110.609,232.58,110.609,232.173z"/>
		<path fill="#FFFFFF" d="M132.416,230.715c0,1.123-0.165,2.129-0.496,3.017c-0.33,0.886-0.816,1.638-1.458,2.251
			c-0.643,0.613-1.436,1.081-2.379,1.401c-0.944,0.321-2.03,0.482-3.257,0.482c-1.152,0-2.186-0.145-3.101-0.433
			c-0.916-0.288-1.69-0.725-2.322-1.31c-0.632-0.585-1.116-1.314-1.452-2.188c-0.335-0.873-0.503-1.896-0.503-3.066v-11.144
			c0-0.095,0.029-0.18,0.085-0.255s0.158-0.137,0.304-0.183c0.146-0.048,0.338-0.086,0.574-0.113
			c0.236-0.029,0.538-0.043,0.906-0.043c0.359,0,0.656,0.014,0.892,0.043c0.236,0.027,0.425,0.065,0.566,0.113
			c0.142,0.046,0.243,0.108,0.305,0.183c0.061,0.075,0.092,0.16,0.092,0.255v10.818c0,0.727,0.09,1.357,0.269,1.891
			c0.179,0.533,0.437,0.975,0.772,1.323c0.334,0.35,0.736,0.611,1.203,0.786c0.468,0.175,0.989,0.263,1.565,0.263
			c0.585,0,1.109-0.09,1.572-0.27c0.462-0.179,0.854-0.441,1.175-0.786c0.321-0.345,0.569-0.77,0.744-1.274
			c0.174-0.505,0.261-1.078,0.261-1.721v-11.03c0-0.095,0.028-0.18,0.085-0.255s0.156-0.137,0.298-0.183
			c0.142-0.048,0.333-0.086,0.573-0.113c0.24-0.029,0.541-0.043,0.899-0.043c0.358,0,0.654,0.014,0.885,0.043
			c0.23,0.027,0.417,0.065,0.559,0.113c0.142,0.046,0.241,0.108,0.298,0.183s0.085,0.16,0.085,0.255V230.715z"/>
		<path fill="#FFFFFF" d="M140.133,237.031c0,0.095-0.031,0.18-0.092,0.255c-0.061,0.075-0.163,0.137-0.304,0.185
			c-0.142,0.047-0.331,0.084-0.567,0.113c-0.236,0.027-0.538,0.042-0.906,0.042c-0.359,0-0.658-0.015-0.899-0.042
			c-0.241-0.029-0.432-0.066-0.574-0.113c-0.141-0.048-0.243-0.109-0.304-0.185c-0.062-0.075-0.093-0.16-0.093-0.255v-17.304
			c0-0.095,0.031-0.18,0.093-0.255c0.061-0.075,0.165-0.137,0.311-0.183c0.146-0.048,0.337-0.086,0.573-0.113
			c0.236-0.029,0.533-0.043,0.892-0.043c0.369,0,0.67,0.014,0.906,0.043c0.236,0.027,0.425,0.065,0.567,0.113
			c0.141,0.046,0.243,0.108,0.304,0.183c0.062,0.075,0.092,0.16,0.092,0.255V237.031z"/>
		<path fill="#FFFFFF" d="M154.193,235.983c0,0.283-0.012,0.521-0.035,0.714c-0.024,0.194-0.059,0.355-0.106,0.482
			c-0.047,0.128-0.106,0.22-0.176,0.276c-0.071,0.057-0.154,0.085-0.248,0.085h-8.397c-0.312,0-0.574-0.092-0.786-0.276
			c-0.213-0.184-0.319-0.483-0.319-0.899v-16.638c0-0.095,0.031-0.18,0.092-0.255c0.061-0.075,0.163-0.137,0.304-0.183
			c0.142-0.048,0.333-0.086,0.574-0.113c0.24-0.029,0.54-0.043,0.899-0.043c0.368,0,0.67,0.014,0.906,0.043
			c0.236,0.027,0.425,0.065,0.566,0.113c0.142,0.046,0.243,0.108,0.304,0.183c0.062,0.075,0.092,0.16,0.092,0.255v14.741h5.763
			c0.094,0,0.177,0.025,0.248,0.077c0.07,0.052,0.129,0.137,0.176,0.255c0.047,0.118,0.083,0.274,0.106,0.468
			C154.182,235.461,154.193,235.7,154.193,235.983z"/>
		<path fill="#FFFFFF" d="M171.61,228.11c0,1.681-0.22,3.117-0.658,4.312c-0.439,1.194-1.069,2.168-1.891,2.924
			c-0.821,0.756-1.819,1.31-2.995,1.664c-1.175,0.354-2.575,0.531-4.198,0.531h-4.376c-0.312,0-0.573-0.092-0.785-0.276
			c-0.213-0.184-0.319-0.483-0.319-0.899v-15.973c0-0.415,0.106-0.715,0.319-0.898c0.212-0.185,0.474-0.276,0.785-0.276h4.701
			c1.634,0,3.019,0.191,4.156,0.573c1.138,0.383,2.096,0.949,2.875,1.699c0.778,0.751,1.371,1.678,1.776,2.784
			C171.407,225.377,171.61,226.656,171.61,228.11z M167.759,228.238c0-0.869-0.102-1.676-0.305-2.422
			c-0.202-0.746-0.528-1.393-0.977-1.939c-0.448-0.547-1.024-0.976-1.728-1.282c-0.703-0.306-1.626-0.459-2.768-0.459h-1.883v12.46
			h1.94c1.02,0,1.878-0.131,2.577-0.396c0.699-0.265,1.281-0.664,1.749-1.196c0.467-0.533,0.817-1.196,1.048-1.989
			S167.759,229.294,167.759,228.238z"/>
		<path fill="#FFFFFF" d="M178.407,237.031c0,0.095-0.031,0.18-0.092,0.255c-0.062,0.075-0.163,0.137-0.305,0.185
			c-0.142,0.047-0.331,0.084-0.567,0.113c-0.235,0.027-0.538,0.042-0.906,0.042c-0.359,0-0.658-0.015-0.899-0.042
			c-0.241-0.029-0.432-0.066-0.573-0.113c-0.142-0.048-0.243-0.109-0.305-0.185c-0.061-0.075-0.092-0.16-0.092-0.255v-17.304
			c0-0.095,0.031-0.18,0.092-0.255c0.062-0.075,0.166-0.137,0.312-0.183c0.146-0.048,0.337-0.086,0.574-0.113
			c0.236-0.029,0.533-0.043,0.892-0.043c0.368,0,0.67,0.014,0.906,0.043c0.236,0.027,0.425,0.065,0.567,0.113
			c0.142,0.046,0.243,0.108,0.305,0.183c0.061,0.075,0.092,0.16,0.092,0.255V237.031z"/>
		<path fill="#FFFFFF" d="M197.509,236.238c0,0.217-0.038,0.41-0.113,0.58c-0.076,0.17-0.177,0.313-0.304,0.426
			c-0.128,0.113-0.279,0.195-0.453,0.247c-0.175,0.052-0.353,0.078-0.532,0.078h-1.585c-0.331,0-0.617-0.033-0.856-0.099
			c-0.241-0.066-0.463-0.187-0.667-0.361c-0.203-0.175-0.398-0.412-0.587-0.708c-0.189-0.298-0.402-0.683-0.638-1.154l-4.559-8.567
			c-0.265-0.51-0.534-1.06-0.807-1.649c-0.274-0.59-0.52-1.163-0.737-1.719h-0.028c0.038,0.679,0.066,1.356,0.085,2.031
			c0.019,0.674,0.028,1.371,0.028,2.089v9.586c0,0.094-0.026,0.179-0.078,0.254c-0.052,0.076-0.141,0.14-0.269,0.191
			c-0.127,0.052-0.299,0.092-0.517,0.121c-0.218,0.027-0.496,0.042-0.835,0.042c-0.331,0-0.604-0.015-0.821-0.042
			c-0.217-0.029-0.387-0.069-0.51-0.121c-0.123-0.052-0.208-0.115-0.254-0.191c-0.047-0.075-0.071-0.16-0.071-0.254v-16.469
			c0-0.443,0.129-0.776,0.39-0.998c0.259-0.222,0.578-0.333,0.955-0.333h1.997c0.359,0,0.661,0.03,0.906,0.091
			c0.246,0.062,0.465,0.163,0.659,0.305c0.194,0.142,0.375,0.338,0.545,0.588c0.17,0.25,0.345,0.559,0.524,0.927l3.568,6.698
			c0.208,0.406,0.414,0.805,0.617,1.196c0.202,0.392,0.398,0.784,0.587,1.176c0.189,0.392,0.374,0.776,0.552,1.154
			c0.179,0.377,0.354,0.755,0.524,1.133h0.014c-0.028-0.661-0.05-1.351-0.063-2.068c-0.015-0.717-0.021-1.401-0.021-2.052v-8.596
			c0-0.094,0.028-0.179,0.085-0.254c0.057-0.076,0.151-0.143,0.284-0.199c0.132-0.056,0.306-0.096,0.523-0.12
			s0.496-0.035,0.835-0.035c0.321,0,0.59,0.012,0.808,0.035c0.217,0.023,0.384,0.063,0.502,0.12
			c0.118,0.057,0.201,0.123,0.248,0.199c0.047,0.075,0.071,0.16,0.071,0.254V236.238z"/>
		<path fill="#FFFFFF" d="M216.2,222.064c0,0.273-0.012,0.509-0.036,0.707c-0.023,0.199-0.057,0.357-0.099,0.475
			c-0.043,0.118-0.094,0.201-0.156,0.248c-0.061,0.047-0.134,0.07-0.219,0.07c-0.123,0-0.321-0.084-0.595-0.253
			c-0.273-0.17-0.637-0.355-1.09-0.553c-0.453-0.198-0.994-0.383-1.621-0.552c-0.628-0.17-1.358-0.254-2.188-0.254
			c-0.887,0-1.69,0.154-2.407,0.46c-0.717,0.307-1.331,0.742-1.841,1.303c-0.509,0.562-0.901,1.236-1.175,2.024
			s-0.411,1.66-0.411,2.614c0,1.047,0.139,1.969,0.417,2.767c0.279,0.798,0.668,1.466,1.168,2.004
			c0.501,0.538,1.103,0.944,1.806,1.218c0.704,0.273,1.48,0.411,2.329,0.411c0.416,0,0.827-0.048,1.232-0.143
			c0.406-0.093,0.783-0.235,1.133-0.423v-4.248h-3.47c-0.169,0-0.302-0.106-0.396-0.319c-0.094-0.211-0.142-0.573-0.142-1.083
			c0-0.265,0.012-0.486,0.036-0.666c0.023-0.179,0.059-0.323,0.106-0.432c0.047-0.108,0.104-0.188,0.17-0.24
			c0.066-0.052,0.142-0.078,0.226-0.078h6.188c0.151,0,0.286,0.026,0.404,0.078c0.118,0.052,0.222,0.13,0.312,0.234
			c0.09,0.103,0.158,0.228,0.205,0.375s0.071,0.314,0.071,0.503v7.292c0,0.284-0.05,0.531-0.148,0.744
			c-0.1,0.211-0.302,0.379-0.61,0.503c-0.307,0.122-0.686,0.25-1.14,0.382c-0.453,0.132-0.923,0.245-1.409,0.34
			c-0.486,0.094-0.977,0.165-1.473,0.211c-0.495,0.048-0.993,0.072-1.494,0.072c-1.463,0-2.773-0.21-3.929-0.63
			c-1.157-0.42-2.136-1.029-2.938-1.827c-0.802-0.798-1.416-1.77-1.841-2.917c-0.424-1.146-0.637-2.447-0.637-3.9
			c0-1.502,0.227-2.849,0.68-4.043c0.453-1.194,1.095-2.208,1.926-3.045c0.831-0.835,1.833-1.474,3.009-1.918
			c1.175-0.444,2.485-0.666,3.929-0.666c0.793,0,1.516,0.055,2.167,0.163c0.652,0.108,1.221,0.24,1.707,0.396
			c0.486,0.155,0.89,0.323,1.21,0.503c0.321,0.179,0.545,0.335,0.673,0.466c0.127,0.132,0.219,0.318,0.275,0.56
			C216.171,221.235,216.2,221.591,216.2,222.064z"/>
	</g>
	<rect y="11.409" fill="none" width="303.02" height="289.082"/>
</g>
<path fill="#FFFFFF" d="M231.068,232.354c0,0.963-0.179,1.808-0.538,2.536c-0.358,0.727-0.845,1.333-1.458,1.819
	s-1.331,0.851-2.152,1.097c-0.821,0.246-1.699,0.369-2.634,0.369c-0.632,0-1.22-0.053-1.763-0.156
	c-0.542-0.104-1.022-0.229-1.437-0.375c-0.416-0.147-0.763-0.3-1.041-0.461c-0.278-0.16-0.479-0.302-0.602-0.424
	c-0.123-0.123-0.21-0.3-0.262-0.531c-0.052-0.231-0.078-0.564-0.078-0.998c0-0.293,0.009-0.539,0.028-0.736
	c0.019-0.199,0.049-0.359,0.091-0.482c0.043-0.122,0.1-0.21,0.17-0.262c0.071-0.052,0.154-0.078,0.249-0.078
	c0.132,0,0.318,0.078,0.559,0.234c0.24,0.155,0.55,0.328,0.928,0.516c0.377,0.189,0.829,0.362,1.352,0.517
	c0.525,0.156,1.131,0.234,1.82,0.234c0.453,0,0.859-0.055,1.218-0.163c0.359-0.108,0.664-0.263,0.914-0.46
	c0.25-0.199,0.441-0.444,0.574-0.736c0.132-0.293,0.198-0.619,0.198-0.978c0-0.415-0.113-0.771-0.34-1.069
	c-0.227-0.297-0.521-0.562-0.884-0.793c-0.364-0.231-0.777-0.448-1.24-0.651c-0.462-0.203-0.939-0.417-1.43-0.644
	c-0.49-0.227-0.968-0.484-1.43-0.772c-0.463-0.288-0.875-0.632-1.24-1.033c-0.363-0.401-0.658-0.876-0.884-1.423
	c-0.227-0.548-0.34-1.204-0.34-1.969c0-0.878,0.163-1.649,0.489-2.315c0.326-0.665,0.764-1.217,1.317-1.656
	c0.552-0.439,1.203-0.767,1.955-0.984c0.75-0.217,1.545-0.325,2.385-0.325c0.435,0,0.869,0.032,1.303,0.099s0.84,0.155,1.218,0.269
	c0.377,0.113,0.712,0.242,1.005,0.383c0.292,0.142,0.486,0.259,0.58,0.353c0.094,0.095,0.158,0.175,0.191,0.241
	c0.033,0.066,0.061,0.153,0.085,0.262c0.023,0.108,0.04,0.246,0.049,0.411c0.009,0.165,0.014,0.37,0.014,0.616
	c0,0.274-0.007,0.505-0.021,0.694c-0.014,0.188-0.038,0.345-0.07,0.468c-0.033,0.122-0.081,0.211-0.142,0.268
	c-0.062,0.057-0.144,0.085-0.248,0.085s-0.269-0.066-0.496-0.198c-0.227-0.132-0.505-0.276-0.835-0.432
	c-0.331-0.156-0.713-0.298-1.147-0.425c-0.435-0.128-0.911-0.191-1.431-0.191c-0.405,0-0.76,0.049-1.062,0.148
	c-0.302,0.1-0.554,0.236-0.757,0.411s-0.354,0.385-0.453,0.63c-0.1,0.245-0.148,0.505-0.148,0.78c0,0.405,0.11,0.756,0.332,1.055
	c0.222,0.296,0.52,0.561,0.893,0.792c0.373,0.232,0.795,0.448,1.267,0.651c0.473,0.203,0.954,0.417,1.445,0.644
	c0.49,0.226,0.972,0.484,1.444,0.772c0.472,0.288,0.892,0.632,1.26,1.033c0.369,0.401,0.666,0.873,0.892,1.416
	S231.068,231.618,231.068,232.354z"/>
</svg>
